<?xml version="1.0"?>
<svg width="80px" height="80px" viewBox="0 0 80 80" version="1.1" xmlns="http://www.w3.org/2000/svg" xmlns:xlink="http://www.w3.org/1999/xlink">
    <title>Umbrella</title>
    <g id="Umbrella" stroke="none" stroke-width="1" fill="none" fill-rule="evenodd">
        <g id="umbrella" transform="translate(1.400000, 7.527957)">
            <path d="M38.6,32.9885297 L38.6,54.0069034 C38.6,63.2411156 36.5666667,67.8582217 32.5,67.8582217 C26.4,67.8582217 28.1606178,59.0992067 28.1606178,59.0992067" id="Path" stroke="hsl(220,18%,40%)" stroke-width="5" stroke-linecap="round" stroke-linejoin="round"></path>
            <path d="M39,0 L0,32 C4.33333333,36 8.66666667,36 13,32 L39,0 Z" id="Path" fill="hsl(220,15%,54%)" fill-rule="nonzero"></path>
            <path d="M39,0 L13,32 C17.3333333,36 21.6666667,36 26,32 L39,0 Z" id="Path" fill="hsl(220,20%,80%)" fill-rule="nonzero"></path>
            <path d="M39,0 L26,32 C30.3333333,36 34.6666667,36 39,32 L39,0 Z" id="Path" fill="hsl(220,15%,54%)" fill-rule="nonzero"></path>
            <path d="M39,0 L39,32 C43.3333333,36 47.6666667,36 52,32 L39,0 Z" id="Path" fill="hsl(220,20%,80%)" fill-rule="nonzero"></path>
            <path d="M39,0 L52,32 C56.3333333,36 60.6666667,36 65,32 L39,0 Z" id="Path" fill="hsl(220,15%,54%)" fill-rule="nonzero"></path>
            <path d="M39,0 L65,32 C69.3333333,36 73.6666667,36 78,32 L39,0 Z" id="Path" fill="hsl(220,20%,80%)" fill-rule="nonzero"></path>
            <line x1="39" y1="0" x2="0" y2="32" id="Path" stroke="hsl(220,18%,40%)" stroke-width="1.2" fill="none" fill-rule="nonzero" stroke-linecap="round"></line>
            <line x1="39" y1="0" x2="13" y2="32" id="Path" stroke="hsl(220,18%,40%)" stroke-width="1.2" fill="none" fill-rule="nonzero" stroke-linecap="round"></line>
            <line x1="39" y1="0" x2="26" y2="32" id="Path" stroke="hsl(220,18%,40%)" stroke-width="1.2" fill="none" fill-rule="nonzero" stroke-linecap="round"></line>
            <line x1="39" y1="0" x2="52" y2="32" id="Path" stroke="hsl(220,18%,40%)" stroke-width="1.2" fill="none" fill-rule="nonzero" stroke-linecap="round"></line>
            <line x1="39" y1="0" x2="65" y2="32" id="Path" stroke="hsl(220,18%,40%)" stroke-width="1.2" fill="none" fill-rule="nonzero" stroke-linecap="round"></line>
            <line x1="39" y1="0" x2="78" y2="32" id="Path" stroke="hsl(220,18%,40%)" stroke-width="1.2" fill="none" fill-rule="nonzero" stroke-linecap="round"></line>
        </g>
    </g>
</svg>