<svg xmlns="http://www.w3.org/2000/svg" viewBox="0 0 100 100" width="100" height="100"><defs><linearGradient id="gs" x1="0" y1="0" x2="1" y2="1"><stop offset="0" stop-color="hsl(230,85%,63%)"></stop><stop offset="1" stop-color="hsl(261,73%,60%)"></stop></linearGradient></defs><circle cx="62.5" cy="62.5" r="20" fill="hsl(189,59%,53%)" opacity="0.28"></circle><path d="M48.0,27.0 H42.0 A6,6 0 0 1 48.0,33.0 V42.0 A6,6 0 0 1 42.0,48.0 H33.0 A6,6 0 0 1 27.0,42.0 V48.0 A21,21 0 0 1 48.0,27.0 Z" fill="hsl(349,71%,52%)" opacity="0.9"></path><path d="M58.0,27.0 H52.0 A21,21 0 0 1 73.0,48.0 V42.0 A6,6 0 0 1 67.0,48.0 H58.0 A6,6 0 0 1 52.0,42.0 V33.0 A6,6 0 0 1 58.0,27.0 Z" fill="hsl(230,86%,62%)" opacity="0.9"></path><path d="M33.0,52.0 H42.0 A6,6 0 0 1 48.0,58.0 V67.0 A6,6 0 0 1 42.0,73.0 H48.0 A21,21 0 0 1 27.0,52.0 V58.0 A6,6 0 0 1 33.0,52.0 Z" fill="hsl(39,89%,49%)" opacity="0.9"></path><path d="M58.0,52.0 H67.0 A6,6 0 0 1 73.0,58.0 V52.0 A21,21 0 0 1 52.0,73.0 H58.0 A6,6 0 0 1 52.0,67.0 V58.0 A6,6 0 0 1 58.0,52.0 Z" fill="hsl(189,59%,53%)"></path><path d="M58.0,54.0 H67.0 A4,4 0 0 1 71.0,58.0 V55.0 A16,16 0 0 1 55.0,71.0 H58.0 A4,4 0 0 1 54.0,67.0 V58.0 A4,4 0 0 1 58.0,54.0 Z" fill="#ffffff" opacity="0.18"></path><path d="M76,64 A14 14 0 0 1 64 76" fill="none" stroke="hsl(189,59%,53%)" stroke-width="3.2" stroke-linecap="round" opacity="0.9"></path><path d="M82,62 A22 22 0 0 1 62 82" fill="none" stroke="hsl(189,59%,53%)" stroke-width="3.2" stroke-linecap="round" opacity="0.5"></path></svg>